<svg width="12" height="11" viewBox="0 0 12 11" fill="none" xmlns="http://www.w3.org/2000/svg">
<path fill-rule="evenodd" clip-rule="evenodd" d="M-1.16728e-05 5.23129C-1.16641e-05 5.03238 0.079006 4.84161 0.219659 4.70096C0.360311 4.56031 0.551076 4.48129 0.749988 4.48129L9.43999 4.48129L6.21999 1.26129C6.08751 1.11912 6.01539 0.93107 6.01881 0.736769C6.02224 0.542468 6.10095 0.357083 6.23837 0.21967C6.37578 0.0822568 6.56116 0.00354483 6.75547 0.000116618C6.94977 -0.00331159 7.13781 0.0688116 7.27999 0.201292L11.78 4.70129C11.9204 4.84192 11.9993 5.03254 11.9993 5.23129C11.9993 5.43004 11.9204 5.62067 11.78 5.76129L7.27999 10.2613C7.13781 10.3938 6.94977 10.4659 6.75547 10.4625C6.56116 10.459 6.37578 10.3803 6.23837 10.2429C6.10095 10.1055 6.02224 9.92011 6.01881 9.72581C6.01539 9.53151 6.08751 9.34347 6.21999 9.20129L9.43999 5.98129L0.749988 5.98129C0.551076 5.98129 0.360311 5.90227 0.219659 5.76162C0.0790059 5.62097 -1.16815e-05 5.4302 -1.16728e-05 5.23129Z" fill="black"/>
</svg>
